<svg width="17" height="17" viewBox="0 0 17 17" fill="none" xmlns="http://www.w3.org/2000/svg">
<path fill-rule="evenodd" clip-rule="evenodd" d="M8.5 15.9375C12.6076 15.9375 15.9375 12.6075 15.9375 8.5C15.9375 4.39246 12.6076 1.0625 8.5 1.0625C4.39238 1.0625 1.0625 4.39246 1.0625 8.5C1.0625 12.6075 4.39238 15.9375 8.5 15.9375ZM11.795 5.20508C12.0684 5.4783 12.0684 5.92157 11.795 6.19501L9.48996 8.5L11.795 10.805C12.0683 11.0784 12.0683 11.5217 11.795 11.7949C11.5216 12.0684 11.0784 12.0684 10.805 11.7949L8.5 9.48993L6.19498 11.7949C5.92162 12.0684 5.47841 12.0684 5.20502 11.7949C4.93167 11.5217 4.93167 11.0784 5.20502 10.805L7.51004 8.5L5.20502 6.19501C4.93167 5.92157 4.93167 5.4783 5.20502 5.20508C5.47838 4.93164 5.9216 4.93164 6.19498 5.20508L8.5 7.51007L10.805 5.20508C11.0784 4.93164 11.5216 4.93164 11.795 5.20508Z"/>
</svg>
