<svg width="32" height="32" viewBox="0 0 32 32" fill="none" xmlns="http://www.w3.org/2000/svg">
<path fill-rule="evenodd" clip-rule="evenodd" d="M10.6492 11.877C9.05181 13.0789 7.77544 14.528 7.01724 15.4865L7.01346 15.4913L7.01345 15.4913C6.89663 15.6369 6.83333 15.8159 6.83333 16C6.83333 16.1841 6.89663 16.3631 7.01345 16.5087L7.01726 16.5135L7.01724 16.5135C7.77544 17.472 9.05181 18.9211 10.6492 20.123C12.2569 21.3327 14.0966 22.2222 16.0002 22.2222C17.9037 22.2222 19.7434 21.3327 21.3511 20.123C22.9484 18.9211 24.2248 17.4722 24.983 16.5136C25.2277 16.2041 25.2282 15.7971 24.9825 15.4858C24.2243 14.5273 22.9481 13.0786 21.3511 11.877C19.7434 10.6673 17.9037 9.77778 16.0002 9.77778C14.0966 9.77778 12.2569 10.6673 10.6492 11.877ZM9.52533 10.4725C11.2845 9.14879 13.517 8 16.0002 8C18.4833 8 20.7158 9.14879 22.475 10.4725C24.2445 11.8039 25.6299 13.3832 26.4378 14.4045L26.4383 14.4052C27.187 15.3537 27.1876 16.6472 26.4379 17.5953L26.4378 17.5955C25.6299 18.6168 24.2445 20.1961 22.475 21.5275C20.7158 22.8512 18.4833 24 16.0002 24C13.517 24 11.2845 22.8512 9.52533 21.5275C7.7571 20.1971 6.37243 18.6191 5.56428 17.5977C5.19859 17.1406 5 16.5786 5 16C5 15.4214 5.19858 14.8594 5.56425 14.4024C6.3724 13.3809 7.75708 11.8029 9.52533 10.4725Z"/>
<path fill-rule="evenodd" clip-rule="evenodd" d="M16 14C14.8954 14 14 14.8954 14 16C14 17.1046 14.8954 18 16 18C17.1046 18 18 17.1046 18 16C18 14.8954 17.1046 14 16 14ZM12 16C12 13.7909 13.7909 12 16 12C18.2091 12 20 13.7909 20 16C20 18.2091 18.2091 20 16 20C13.7909 20 12 18.2091 12 16Z"/>
</svg>
