<svg width="32" height="32" viewBox="0 0 32 32" fill="none" xmlns="http://www.w3.org/2000/svg">
<path fill-rule="evenodd" clip-rule="evenodd" d="M10.9767 12.0398C9.46562 13.2138 8.25629 14.631 7.53686 15.5701L7.53279 15.5754L7.53278 15.5754C7.43834 15.697 7.38708 15.8466 7.38708 16.0005C7.38708 16.1544 7.43834 16.304 7.53278 16.4256L7.53661 16.4305L7.53659 16.4305C8.33411 17.4707 9.7235 19.0864 11.4519 20.3136C11.9023 20.6334 12.0081 21.2576 11.6884 21.7079C11.3686 22.1583 10.7444 22.2641 10.2941 21.9444C8.33383 20.5525 6.80396 18.7617 5.95114 17.6497C5.58552 17.1777 5.38708 16.5976 5.38708 16.0005C5.38708 15.4035 5.58546 14.8235 5.95098 14.3515C6.72481 13.3416 8.05223 11.7792 9.74961 10.4604C11.4371 9.14942 13.5925 8 16 8C18.1623 8 20.1182 8.92709 21.7097 10.0591C22.1597 10.3793 22.265 11.0036 21.9449 11.4536C21.6248 11.9037 21.0004 12.009 20.5504 11.6889C19.1418 10.6869 17.5897 10 16 10C14.2256 10 12.499 10.8571 10.9767 12.0398Z"/>
<path fill-rule="evenodd" clip-rule="evenodd" d="M24.7071 7.29289C25.0976 7.68342 25.0976 8.31658 24.7071 8.70711L18.9386 14.4756C18.9068 14.5192 18.871 14.5608 18.8312 14.5999C18.7956 14.635 18.7579 14.6669 18.7187 14.6955L14.6928 18.7214C14.6648 18.7594 14.6338 18.7958 14.5998 18.8304C14.5618 18.869 14.5215 18.9038 14.4793 18.9349L8.70711 24.7071C8.31658 25.0976 7.68342 25.0976 7.29289 24.7071C6.90237 24.3166 6.90237 23.6834 7.29289 23.2929L12.5522 18.0336C12.4589 17.8764 12.3762 17.7127 12.3049 17.5436C12.1 17.0569 11.9933 16.5346 11.9913 16.0065C11.9892 15.4785 12.0916 14.9553 12.2928 14.4671C12.4939 13.9789 12.7897 13.5353 13.1631 13.162C13.5366 12.7886 13.9802 12.4929 14.4685 12.2919C14.9567 12.0909 15.48 11.9885 16.008 11.9908C16.536 11.993 17.0584 12.0997 17.5449 12.3048C17.7138 12.376 17.8772 12.4585 18.0341 12.5517L23.2929 7.29289C23.6834 6.90237 24.3166 6.90237 24.7071 7.29289ZM16.5231 14.0627C16.3529 14.0158 16.1769 13.9915 15.9996 13.9907C15.7356 13.9896 15.474 14.0408 15.2298 14.1413C14.9857 14.2418 14.7639 14.3897 14.5772 14.5763C14.3905 14.763 14.2426 14.9848 14.142 15.2289C14.0414 15.473 13.9902 15.7346 13.9912 15.9986C13.9919 16.1761 14.0163 16.3522 14.0632 16.5226L16.5231 14.0627ZM22.8762 12.2798C23.2739 11.8967 23.907 11.9085 24.2902 12.3062C24.914 12.9537 25.5008 13.6358 26.0478 14.3493C26.4136 14.8212 26.6123 15.4012 26.6125 15.9983C26.6128 16.5957 26.4146 17.1761 26.0491 17.6484C25.2753 18.6583 23.9478 20.2208 22.2504 21.5396C20.563 22.8506 18.4075 24 16 24L15.9954 24C15.223 23.9965 14.455 23.8828 13.7147 23.6624C13.1854 23.5049 12.884 22.948 13.0416 22.4187C13.1991 21.8894 13.756 21.588 14.2853 21.7456C14.8426 21.9115 15.4208 21.9971 16.0022 22C17.7759 21.9993 19.5017 21.1424 21.0234 19.9602C22.5344 18.7862 23.7437 17.369 24.4632 16.4299L24.4669 16.425C24.5614 16.3032 24.6126 16.1535 24.6125 15.9993C24.6125 15.8452 24.5611 15.6954 24.4665 15.5737L24.4623 15.5684L24.4623 15.5684C23.9605 14.9137 23.4222 14.2879 22.8498 13.6938C22.4667 13.2961 22.4785 12.663 22.8762 12.2798Z" />
</svg>
