<svg width="32" height="32" viewBox="0 0 32 32" fill="none" xmlns="http://www.w3.org/2000/svg">
<path d="M7 10.4C7 10.0287 7.14223 9.6726 7.39541 9.41005C7.64858 9.1475 7.99196 9 8.35 9H23.65C24.008 9 24.3514 9.1475 24.6046 9.41005C24.8578 9.6726 25 10.0287 25 10.4C25 10.7713 24.8578 11.1274 24.6046 11.3899C24.3514 11.6525 24.008 11.8 23.65 11.8H8.35C7.99196 11.8 7.64858 11.6525 7.39541 11.3899C7.14223 11.1274 7 10.7713 7 10.4ZM10.6 16C10.6 15.6287 10.7422 15.2726 10.9954 15.0101C11.2486 14.7475 11.592 14.6 11.95 14.6H20.05C20.408 14.6 20.7514 14.7475 21.0046 15.0101C21.2578 15.2726 21.4 15.6287 21.4 16C21.4 16.3713 21.2578 16.7274 21.0046 16.9899C20.7514 17.2525 20.408 17.4 20.05 17.4H11.95C11.592 17.4 11.2486 17.2525 10.9954 16.9899C10.7422 16.7274 10.6 16.3713 10.6 16ZM14.65 20.2C14.292 20.2 13.9486 20.3475 13.6954 20.6101C13.4422 20.8726 13.3 21.2287 13.3 21.6C13.3 21.9713 13.4422 22.3274 13.6954 22.5899C13.9486 22.8525 14.292 23 14.65 23H17.35C17.708 23 18.0514 22.8525 18.3046 22.5899C18.5578 22.3274 18.7 21.9713 18.7 21.6C18.7 21.2287 18.5578 20.8726 18.3046 20.6101C18.0514 20.3475 17.708 20.2 17.35 20.2H14.65Z" />
</svg>
